<?xml version="1.0" standalone="no"?>
<!DOCTYPE svg PUBLIC "-//W3C//DTD SVG 20010904//EN"
 "http://www.w3.org/TR/2001/REC-SVG-20010904/DTD/svg10.dtd">
<svg version="1.0" xmlns="http://www.w3.org/2000/svg"
 width="400.000000pt" height="400.000000pt" viewBox="0 0 400.000000 400.000000"
 preserveAspectRatio="xMidYMid meet">
<metadata>
Created by potrace 1.14, written by Peter Selinger 2001-2017
</metadata>
<g transform="translate(0.000000,400.000000) scale(0.100000,-0.100000)"
fill="#000000" stroke="none">
<path d="M1091 3143 c-8 -21 -11 -329 -9 -1146 3 -1094 3 -1119 22 -1133 28
-20 63 -17 86 6 20 20 20 33 20 1143 0 1076 -1 1125 -18 1140 -10 10 -35 17
-54 17 -29 0 -38 -5 -47 -27z"/>
<path d="M2806 3149 l-26 -20 0 -1124 0 -1124 22 -21 c28 -25 62 -26 88 0 20
20 20 33 20 1140 l0 1121 -25 24 c-29 30 -45 31 -79 4z"/>
<path d="M1318 3069 c-17 -9 -18 -71 -18 -1077 0 -817 3 -1071 12 -1080 7 -7
29 -12 50 -12 32 0 40 4 48 26 6 16 10 415 10 1067 0 927 -2 1045 -16 1065
-16 24 -56 29 -86 11z"/>
<path d="M2603 3030 c-14 -6 -24 -21 -28 -42 -3 -18 -4 -502 -3 -1075 3 -1029
3 -1042 23 -1057 26 -20 55 -20 83 0 l22 15 0 1065 c0 1051 0 1064 -20 1084
-21 21 -42 24 -77 10z"/>
<path d="M1530 2930 c-20 -20 -20 -33 -20 -668 0 -616 1 -650 18 -665 10 -10
33 -17 50 -17 63 0 62 -11 62 680 0 525 -2 625 -15 649 -23 45 -62 54 -95 21z"/>
<path d="M2386 2934 c-14 -14 -16 -89 -16 -673 0 -498 3 -660 12 -669 17 -17
64 -15 82 4 14 14 16 88 16 668 0 620 -1 654 -18 669 -23 21 -56 22 -76 1z"/>
<path d="M3024 2936 c-19 -14 -19 -37 -22 -932 -2 -811 -1 -920 13 -941 19
-28 65 -31 88 -5 16 17 17 96 17 935 0 904 0 917 -20 937 -24 24 -49 25 -76 6z"/>
<path d="M886 2915 c-14 -22 -16 -113 -16 -930 0 -1008 -4 -955 65 -955 69 0
65 -53 65 955 0 1008 4 955 -65 955 -24 0 -37 -7 -49 -25z"/>
<path d="M1760 2692 c-39 -15 -39 -16 -40 -689 0 -640 0 -653 20 -673 28 -28
64 -25 89 6 21 26 21 34 21 668 -1 599 -2 642 -18 662 -20 24 -50 35 -72 26z"/>
<path d="M2190 2693 c-8 -4 -22 -16 -32 -27 -16 -20 -17 -66 -18 -662 0 -634
0 -642 21 -668 25 -31 61 -34 89 -6 20 20 20 33 20 673 -1 498 -4 656 -13 668
-14 19 -46 29 -67 22z"/>
<path d="M1957 2392 c-15 -17 -17 -78 -17 -669 0 -617 1 -651 18 -666 24 -22
65 -21 85 1 15 17 17 78 17 669 0 617 -1 651 -18 666 -24 22 -65 21 -85 -1z"/>
</g>
</svg>
