<svg width="15" height="17" viewBox="0 0 15 17" fill="none" xmlns="http://www.w3.org/2000/svg">
<path fill-rule="evenodd" clip-rule="evenodd" d="M4.167 5C4.167 4.11603 4.51815 3.26827 5.14321 2.64321C5.76827 2.01815 6.61603 1.667 7.5 1.667C8.38397 1.667 9.23173 2.01815 9.85679 2.64321C10.4818 3.26827 10.833 4.11603 10.833 5H4.167ZM2.5 5C2.5 3.67392 3.02678 2.40215 3.96447 1.46447C4.90215 0.526784 6.17392 0 7.5 0C8.82608 0 10.0979 0.526784 11.0355 1.46447C11.9732 2.40215 12.5 3.67392 12.5 5H13.333C14.253 5 15 5.746 15 6.667V15C15 15.92 14.254 16.667 13.333 16.667H1.667C0.747 16.667 0 15.921 0 15V6.667C0 5.747 0.746 5 1.667 5H2.5ZM1.667 15V6.667H13.333V15H1.667ZM8.333 11.444C8.65061 11.2606 8.89884 10.9776 9.03918 10.6388C9.17953 10.2999 9.20415 9.92426 9.10923 9.57001C9.01431 9.21576 8.80515 8.90273 8.5142 8.67947C8.22324 8.45622 7.86674 8.3352 7.5 8.3352C7.13326 8.3352 6.77676 8.45622 6.4858 8.67947C6.19485 8.90273 5.98569 9.21576 5.89077 9.57001C5.79585 9.92426 5.82047 10.2999 5.96082 10.6388C6.10116 10.9776 6.34939 11.2606 6.667 11.444V12.5C6.667 12.7209 6.75476 12.9328 6.91098 13.089C7.0672 13.2452 7.27907 13.333 7.5 13.333C7.72093 13.333 7.9328 13.2452 8.08902 13.089C8.24524 12.9328 8.333 12.7209 8.333 12.5V11.444Z" fill="#006CFF"/>
</svg>
