<svg width="15" height="11" viewBox="0 0 15 11" fill="none" xmlns="http://www.w3.org/2000/svg">
<path fill-rule="evenodd" clip-rule="evenodd" d="M1.667 7.57836V2.60036L4.691 5.08936L1.667 7.57936V7.57836ZM6.531 4.44636L1.363 0.190358C1.24111 0.0898337 1.09315 0.0260464 0.936374 0.00643961C0.779601 -0.0131672 0.620485 0.0122153 0.477593 0.0796251C0.334701 0.147035 0.213926 0.253692 0.129362 0.38715C0.044798 0.520609 -6.77983e-05 0.675364 7.68997e-08 0.833358V9.34336C7.68997e-08 10.0474 0.82 10.4334 1.363 9.98636L6.531 5.73136C6.62589 5.65321 6.7023 5.55503 6.75477 5.44386C6.80723 5.33269 6.83443 5.21129 6.83443 5.08836C6.83443 4.96543 6.80723 4.84403 6.75477 4.73286C6.7023 4.62169 6.62589 4.52351 6.531 4.44536V4.44636ZM9.738 7.57836V2.60036L12.763 5.08936L9.739 7.57936L9.738 7.57836ZM14.603 4.44636L9.435 0.190358C9.31311 0.0898337 9.16515 0.0260464 9.00837 0.00643961C8.8516 -0.0131672 8.69248 0.0122153 8.54959 0.0796251C8.4067 0.147035 8.28593 0.253692 8.20136 0.38715C8.1168 0.520609 8.07193 0.675364 8.072 0.833358V9.34336C8.072 10.0474 8.892 10.4334 9.435 9.98636L14.603 5.73136C14.6979 5.65321 14.7743 5.55503 14.8268 5.44386C14.8792 5.33269 14.9064 5.21129 14.9064 5.08836C14.9064 4.96543 14.8792 4.84403 14.8268 4.73286C14.7743 4.62169 14.6979 4.52351 14.603 4.44536V4.44636Z" fill="#006CFF"/>
</svg>
