<svg width="14" height="15" viewBox="0 0 14 15" fill="none" xmlns="http://www.w3.org/2000/svg">
<path fill-rule="evenodd" clip-rule="evenodd" d="M9.167 4.10245C9.167 4.76549 8.90361 5.40138 8.43477 5.87022C7.96593 6.33906 7.33004 6.60245 6.667 6.60245C6.00396 6.60245 5.36807 6.33906 4.89923 5.87022C4.43039 5.40138 4.167 4.76549 4.167 4.10245C4.167 3.43941 4.43039 2.80352 4.89923 2.33468C5.36807 1.86584 6.00396 1.60245 6.667 1.60245C7.33004 1.60245 7.96593 1.86584 8.43477 2.33468C8.90361 2.80352 9.167 3.43941 9.167 4.10245ZM10.833 4.10245C10.8416 4.65503 10.7401 5.2038 10.5346 5.71681C10.329 6.22981 10.0235 6.69681 9.63575 7.0906C9.248 7.4844 8.7858 7.79713 8.27604 8.0106C7.76628 8.22407 7.21915 8.334 6.6665 8.334C6.11385 8.334 5.56672 8.22407 5.05696 8.0106C4.5472 7.79713 4.085 7.4844 3.69725 7.0906C3.30951 6.69681 3.00397 6.22981 2.79843 5.71681C2.59288 5.2038 2.49144 4.65503 2.5 4.10245C2.51695 3.0086 2.96337 1.9653 3.7429 1.19775C4.52242 0.430208 5.57252 0 6.6665 0C7.76048 0 8.81058 0.430208 9.5901 1.19775C10.3696 1.9653 10.8161 3.0086 10.833 4.10245ZM1.668 12.4354C1.668 11.9754 2.041 11.6024 2.501 11.6024H10.834C11.294 11.6024 11.668 11.9754 11.668 12.4354V14.1024C11.668 14.3234 11.7558 14.5353 11.912 14.6915C12.0682 14.8477 12.2801 14.9354 12.501 14.9354C12.7219 14.9354 12.9338 14.8477 13.09 14.6915C13.2462 14.5353 13.334 14.3234 13.334 14.1024V12.4354C13.334 11.7724 13.0706 11.1365 12.6018 10.6677C12.1329 10.1988 11.497 9.93545 10.834 9.93545H2.5C1.83696 9.93545 1.20107 10.1988 0.732233 10.6677C0.263392 11.1365 0 11.7724 0 12.4354V14.1024C0 14.3235 0.087815 14.5355 0.244127 14.6918C0.400438 14.8481 0.612442 14.9359 0.8335 14.9359C1.05456 14.9359 1.26656 14.8481 1.42287 14.6918C1.57919 14.5355 1.667 14.3235 1.667 14.1024V12.4354H1.668Z" fill="#006CFF"/>
</svg>
